<svg xmlns="http://www.w3.org/2000/svg" viewBox="0 0 612 792"><defs><style>.cls-1,.cls-13,.cls-16{fill:#2d2d2d;}.cls-13,.cls-2,.cls-4,.cls-9{font-size:12px;}.cls-2{fill:#fff;font-family:Montserrat-ExtraBold, Montserrat;font-weight:800;}.cls-3{letter-spacing:0em;}.cls-4{fill:#2d2c2d;}.cls-13,.cls-14,.cls-4{font-family:OpenSans-Regular, Open Sans;}.cls-5{letter-spacing:0.2em;}.cls-6{fill:#000;}.cls-7{letter-spacing:-0.01em;}.cls-8{letter-spacing:-0.03em;}.cls-9{font-family:OpenSans-Bold, Open Sans;}.cls-16,.cls-9{font-weight:700;}.cls-10{letter-spacing:-0.01em;}.cls-11{letter-spacing:-0.02em;}.cls-12{letter-spacing:-0.01em;}.cls-14{font-weight:400;}.cls-15{fill:#00d6cb;}.cls-16{font-size:30px;font-family:Montserrat-Bold, Montserrat;}.cls-17{letter-spacing:-0.01em;}.cls-18{letter-spacing:0em;}.cls-19{letter-spacing:0.01em;}.cls-20{letter-spacing:0em;}</style></defs><title>resume</title><g id="sidebar"><rect class="cls-1" width="139" height="792"/></g><g id="SKILLS"><text class="cls-2" transform="translate(71.1 673.34)">SKIL<tspan class="cls-3" x="28.18" y="0">L</tspan><tspan x="35.47" y="0">S</tspan></text><text class="cls-4" transform="translate(162.1 673.55)">•<tspan class="cls-5" x="4.51" y="0">	</tspan><tspan class="cls-6" x="10" y="0">HTML, CSS, JavaScript, Processing 3</tspan><tspan x="0" y="14.4">•</tspan><tspan class="cls-5" x="4.51" y="14.4">	</tspan><tspan class="cls-6" x="10" y="14.4">Adobe Illustrator, Photoshop, After Effects</tspan><tspan x="0" y="28.8">•</tspan><tspan class="cls-5" x="4.51" y="28.8">	</tspan><tspan class="cls-6" x="10" y="28.8">Figma, Adobe XD</tspan><tspan x="0" y="43.2">•</tspan><tspan class="cls-5" x="4.51" y="43.2">	</tspan><tspan class="cls-6" x="10" y="43.2">Written and verbal communication, problem-solving, organization</tspan></text></g><g id="EDUCATION"><text class="cls-2" transform="translate(38.78 572.4)">EDU<tspan class="cls-7" x="27.41" y="0">C</tspan><tspan class="cls-8" x="36.12" y="0">A</tspan><tspan x="45.13" y="0">TION</tspan></text><text class="cls-4" transform="translate(162.1 590.95)">•<tspan class="cls-5" x="4.51" y="0">	</tspan><tspan x="10" y="0">Interaction Design and Development, Advanced Diploma</tspan></text><text class="cls-9" transform="translate(162.1 573.5)">George Brown College, 2021</text><text class="cls-4" transform="translate(162.1 641.51)">•<tspan class="cls-5" x="4.51" y="0">	</tspan><tspan class="cls-6" x="10" y="0">Political Science and International Relations, Bachelor of Arts</tspan></text><text class="cls-9" transform="translate(162.1 622.53)">University of Toronto, 2018</text></g><g id="EXPERIENCE"><text class="cls-2" transform="translate(33.36 254.74)"><tspan class="cls-10">E</tspan><tspan class="cls-11" x="7.99" y="0">X</tspan><tspan class="cls-12" x="16.58" y="0">P</tspan><tspan x="25.31" y="0">ERIENCE</tspan></text><text class="cls-13" transform="translate(162.1 286.96)">•<tspan class="cls-5" x="4.51" y="0">	</tspan><tspan x="10" y="0">Managed team of five in term project on the nature of data collection in </tspan><tspan x="10" y="14.4">smart cities</tspan><tspan x="0" y="28.8">•</tspan><tspan class="cls-5" x="4.51" y="28.8">	</tspan><tspan x="10" y="28.8">Communicated design concepts in presentations to classmates and </tspan><tspan x="10" y="43.2">faculty</tspan><tspan x="0" y="57.6">•</tspan><tspan class="cls-5" x="4.51" y="57.6">	</tspan><tspan x="10" y="57.6">Learned about Python and machine learning platforms through setting </tspan><tspan x="10" y="72">up and using Darknet’s YOLOv2 object detection system</tspan><tspan x="0" y="86.4">•</tspan><tspan class="cls-5" x="4.51" y="86.4">	</tspan><tspan x="10" y="86.4">Created CoSpaces submission for virtual year-end exhibition with </tspan><tspan x="10" y="100.8">built-in code blocks and Typescript</tspan></text><text class="cls-9" transform="translate(162.1 254.96)">Project Disclosure, Team Leader, Jan-Apr 2020<tspan class="cls-14"><tspan x="0" y="14.4">George Brown College, Spatial Relations and Immersive Environments</tspan></tspan></text><text class="cls-4" transform="translate(162.11 454.13)">•<tspan class="cls-5" x="4.51" y="0">	</tspan><tspan x="10" y="0">Designed and coded an article post for a fictitious superhero website in </tspan><tspan x="10" y="14.4">a team of two</tspan><tspan x="0" y="28.8">•</tspan><tspan class="cls-5" x="4.51" y="28.8">	</tspan><tspan x="10" y="28.8" xml:space="preserve">Created elements, like clickable image thumbnails and a scrollspy, for  </tspan><tspan x="10" y="43.2">added page interactivity</tspan><tspan x="0" y="57.6">•</tspan><tspan class="cls-5" x="4.51" y="57.6">	</tspan><tspan x="10" y="57.6">Implemented features to enhance usability of website, like a fixed footer </tspan><tspan x="10" y="72">in the presence of infinite scrolling</tspan><tspan x="0" y="86.4">•</tspan><tspan class="cls-5" x="4.51" y="86.4">	</tspan><tspan x="10" y="86.4">Assisted partner in troubleshooting code when needed</tspan></text><text class="cls-9" transform="translate(162.11 421.54)">SUPERDAZE, Mar-Apr 2020<tspan class="cls-14"><tspan x="0" y="14.4">George Brown College, Interface Development II</tspan></tspan></text></g><g id="SUMMARY"><text class="cls-2" transform="translate(47.74 164.34)">SUMMA<tspan class="cls-12" x="49.52" y="0">R</tspan><tspan x="58.28" y="0">Y</tspan></text><g id="text"><text class="cls-13" transform="translate(162.1 164.56)">•<tspan class="cls-5" x="4.51" y="0">	</tspan><tspan x="10" y="0">Two years of institutional experience using HTML, CSS, and JavaScript to </tspan><tspan x="10" y="14.4">develop simple and usable interfaces</tspan><tspan x="0" y="28.8">•</tspan><tspan class="cls-5" x="4.51" y="28.8">	</tspan><tspan x="10" y="28.8">Ability to work within a team and take on leadership roles</tspan><tspan x="0" y="43.2">•</tspan><tspan class="cls-5" x="4.51" y="43.2">	</tspan><tspan x="10" y="43.2">Committed to tackling challenges, figuring things out, and making things </tspan><tspan x="10" y="57.6">work</tspan></text></g></g><g id="CONTACT"><text class="cls-13" transform="translate(180.13 131.57)">www.linkedin.com/in/ashleylall</text><circle class="cls-1" cx="168.33" cy="127.1" r="6.23"/><path class="cls-15" d="M166.44,124.11a.77.77,0,1,1-.76-.7A.69.69,0,0,1,166.44,124.11ZM165,129.77v-4.42h1.44v4.42Z"/><path class="cls-15" d="M167.58,126.79c0-.57,0-1.05,0-1.44h1.25l.07.65h0a1.7,1.7,0,0,1,1.46-.75c.92,0,1.71.57,1.71,2v2.54h-1.43v-2.34c0-.64-.24-1-.79-1a.83.83,0,0,0-.78.56,1.08,1.08,0,0,0,0,.32v2.5h-1.44Z"/><g id="github-2" data-name="github"><text class="cls-13" transform="translate(180.13 116.47)">ashleylall.github.io/portfolio/</text></g><path class="cls-1" d="M174.56,112.13a6.25,6.25,0,0,1-4.39,6h-3.68a6.23,6.23,0,1,1,8.07-6Z"/><path class="cls-15" d="M169.48,114.87a1.61,1.61,0,0,1,.38.87c0,.45,0,2,0,2.09s.1.2.32.26h-3.68c.15,0,.23-.07.29-.21a11.09,11.09,0,0,0,0-1.29,2.91,2.91,0,0,1-1.56-.08c-.67-.35-.62-1.3-1.5-1.8-.22-.13.52-.2.83.06s.66.87.93,1a2.08,2.08,0,0,0,1,.1c.43,0,.28-.81.76-1a2.74,2.74,0,0,1-2.89-2.75c0-1.39.41-1.69.65-1.92a2.35,2.35,0,0,1,.05-1.71,2.4,2.4,0,0,1,1.66.61,7,7,0,0,1,3.24,0,2.88,2.88,0,0,1,1.66-.7,3,3,0,0,1,0,1.73,2.3,2.3,0,0,1,.64,1.7A2.71,2.71,0,0,1,169.48,114.87Z"/><path class="cls-15" d="M170.17,118.09a6.4,6.4,0,0,1-3.68,0Z"/><text class="cls-13" transform="translate(180.13 101.64)">ashley.lall@outlook.com</text><circle class="cls-1" cx="168.33" cy="97.16" r="6.23"/><path class="cls-15" d="M171.3,94.2h-5.94a.74.74,0,0,0-.74.74v4.45a.74.74,0,0,0,.74.74h5.94a.74.74,0,0,0,.74-.74V94.94A.74.74,0,0,0,171.3,94.2Zm0,1.48-3,1.85-3-1.85v-.74l3,1.85,3-1.85Z"/><text class="cls-13" transform="translate(180.13 86.34)">(647) 207-2058</text><circle class="cls-1" cx="168.33" cy="82.19" r="6.23"/><path class="cls-15" d="M166,81.66a6.61,6.61,0,0,0,2.9,2.9l1-1a.47.47,0,0,1,.45-.1,5.17,5.17,0,0,0,1.58.25.44.44,0,0,1,.44.44v1.54a.44.44,0,0,1-.44.44,7.49,7.49,0,0,1-7.5-7.49.45.45,0,0,1,.44-.45h1.55a.45.45,0,0,1,.44.45,5.06,5.06,0,0,0,.25,1.57.45.45,0,0,1-.11.45Z"/><text class="cls-16" transform="translate(162.53 65)">ASHL<tspan class="cls-17" x="84.48" y="0">E</tspan><tspan class="cls-18" x="104.4" y="0">Y </tspan><tspan class="cls-19" x="133.17" y="0">L</tspan><tspan class="cls-20" x="151.47" y="0">ALL</tspan></text></g></svg>