<svg xmlns="http://www.w3.org/2000/svg" viewBox="0 0 200 200"><defs><style>.cls-1{fill:#fff;}</style></defs><title>Artboard 7</title><g id="GITHUB"><path class="cls-1" d="M163.9,95.71c0-17.25-8.59-25.49-10.24-27.28,1.58-1.79,3-17.86-.79-27.72-9.48-.49-23.87,7.8-26.76,11.26-13.73-4.81-37.81-4-52-.65-6.62-5.72-19.49-11.71-26.6-9.84-4.35,7.43-3.39,20.34-.73,27.46C42.86,72.68,36.2,77.4,36.2,99.85c0,29.7,24.34,44.16,46.43,44.16-7.66,3.14-5.23,15.6-12.27,16.17-2.63.22-10.22,1.06-16-1.56C50,156.2,42.92,145.07,39.41,142.14c-5-4.17-16.8-3-13.24-1,14.13,8.08,13.2,23.43,24,29,3.23,1.68,16.33,3.65,25,1.23,0,1.08.88,18.48,0,20.71s-2.2,2.8-4.56,3.31a100.6,100.6,0,0,0,59.05,0c-3.48-.89-5.07-1.88-5.07-4.1s.36-26.31.08-33.58-4.33-10.93-6.15-14C151.53,143.72,163.9,119.68,163.9,95.71Z"/></g></svg>