<?xml version="1.0" encoding="utf-8"?>
<!-- Generator: Adobe Illustrator 23.1.0, SVG Export Plug-In . SVG Version: 6.00 Build 0)  -->
<svg version="1.1" xmlns="http://www.w3.org/2000/svg" xmlns:xlink="http://www.w3.org/1999/xlink" x="0px" y="0px"
	 viewBox="0 0 200 200" style="enable-background:new 0 0 200 200;" xml:space="preserve">
<style type="text/css">
	.st0{fill:#2D2D2D;}
	.st1{fill:#00D6CB;}
	.st2{display:none;}
	.st3{display:inline;fill:#00D6CB;}
	.st4{display:inline;fill:#2D2D2D;}
	.st5{display:inline;fill:#DBFF55;}
	.st6{display:inline;fill:#00DFE9;}
	.st7{display:none;fill:#FFFFFF;stroke:#000000;stroke-width:3;stroke-miterlimit:10;}
	.st8{display:none;fill:none;stroke:#000000;stroke-width:3;stroke-miterlimit:10;}
	.st9{fill:#FFFFFF;stroke:#000000;stroke-width:3;stroke-miterlimit:10;}
	.st10{fill:#FFFFFF;stroke:#000000;stroke-width:3;stroke-linecap:round;stroke-miterlimit:10;}
	.st11{fill:none;stroke:#000000;stroke-width:3;stroke-miterlimit:10;}
	.st12{display:none;fill:#2D2D2D;}
	.st13{fill:#FFFFFF;stroke:#2D2D2D;stroke-width:3;stroke-miterlimit:10;}
	.st14{fill:#C58DE2;}
</style>
<g id="COVER_LETTER">
	<g id="top">
	</g>
</g>
<g id="guides" class="st2">
</g>
<g id="email">
	<g>
		<g>
			<path class="st7" d="M161.8,160.5H38.2c-0.6,0-1-0.4-1-1V80.7c0-0.6,0.4-1,1-1h123.6c0.6,0,1,0.4,1,1v78.7
				C162.8,160,162.4,160.5,161.8,160.5z"/>
			<path class="st8" d="M162.4,81.2l-62,39.8c-0.3,0.2-0.6,0.2-0.9,0l-62-39.8c-0.7-0.4-0.4-1.5,0.4-1.5h124
				C162.8,79.7,163.1,80.8,162.4,81.2z"/>
			<path class="st9" d="M162.4,78.3l-62-38.6c-0.3-0.2-0.6-0.2-0.9,0l-62,38.6c-0.7,0.4-0.4,1.5,0.4,1.5h124
				C162.8,79.7,163.1,78.7,162.4,78.3z"/>
			<path class="st10" d="M37.2,80.7v78.7h125.6V81.6l-62.8,38C100,119.6,36.8,80.3,37.2,80.7z"/>
		</g>
		<path class="st11" d="M37.2,78.9c0,1.2,0,2.7,0,2.7"/>
		<path class="st11" d="M162.8,78.9c0,1.2,0,2.7,0,2.7"/>
	</g>
</g>
<g id="GITHUB">
	<g id="Layer_2" class="st2">
	</g>
</g>
<g id="sidebar">
</g>
<g id="SKILLS">
</g>
<g id="EDUCATION">
</g>
<g id="EXPERIENCE">
</g>
<g id="SUMMARY">
</g>
<g id="CONTACT">
</g>
</svg>
