<?xml version="1.0" encoding="utf-8"?>
<!-- Generator: Adobe Illustrator 23.1.0, SVG Export Plug-In . SVG Version: 6.00 Build 0)  -->
<svg version="1.1" xmlns="http://www.w3.org/2000/svg" xmlns:xlink="http://www.w3.org/1999/xlink" x="0px" y="0px"
	 viewBox="0 0 200 200" style="enable-background:new 0 0 200 200;" xml:space="preserve">
<style type="text/css">
	.st0{fill:#2D2D2D;}
	.st1{fill:#00D6CB;}
	.st2{display:none;}
	.st3{display:inline;fill:#00D6CB;}
	.st4{display:inline;fill:#2D2D2D;}
	.st5{display:inline;fill:#DBFF55;}
	.st6{display:inline;fill:#00DFE9;}
	.st7{fill:#FFFFFF;stroke:#000000;stroke-width:3;stroke-miterlimit:10;}
	.st8{fill:none;stroke:#000000;stroke-width:3;stroke-miterlimit:10;}
	.st9{display:none;fill:#2D2D2D;}
	.st10{fill:#FFFFFF;stroke:#2D2D2D;stroke-width:3;stroke-miterlimit:10;}
	.st11{fill:#C58DE2;}
</style>
<g id="COVER_LETTER">
	<g id="top">
	</g>
</g>
<g id="guides" class="st2">
</g>
<g id="email">
</g>
<g id="GITHUB">
	<g id="Layer_2" class="st2">
		
			<image style="display:inline;overflow:visible;" width="249" height="227" xlink:href="4DC724CC.jpg"  transform="matrix(0.1549 0 0 0.1549 31.2083 26.5421)">
		</image>
	</g>
	<g>
		<path class="st9" d="M200.2,99.8c0,45-29.7,83-70.5,95.6H70.6C29.8,182.8,0.2,144.8,0.2,99.8c0-55.2,44.8-100,100-100
			C155.4-0.2,200.2,44.6,200.2,99.8z"/>
		<path class="st7" d="M163.9,95.7c0-17.2-8.6-25.5-10.2-27.3c1.6-1.8,3-17.9-0.8-27.7c-9.5-0.5-23.9,7.8-26.8,11.3
			c-13.7-4.8-37.8-4-52.1-0.7c-6.6-5.7-19.5-11.7-26.6-9.8c-4.4,7.4-3.4,20.3-0.7,27.5c-3.9,3.7-10.5,8.5-10.5,30.9
			c0,29.7,24.3,44.2,46.4,44.2c-7.7,3.1-5.2,15.6-12.3,16.2c-2.6,0.2-10.2,1.1-16-1.6c-4.3-2.4-11.4-13.5-14.9-16.5
			c-5-4.2-16.8-3-13.2-1c14.1,8.1,13.2,23.4,24,29c3.2,1.7,16.3,3.6,25,1.2c0,1.1,0.9,18.5,0,20.7c-0.9,2.2-2.2,2.8-4.6,3.3
			c9.3,2.9,19.2,4.4,29.5,4.4c10.3,0,20.2-1.6,29.5-4.4c-3.5-0.9-5.1-1.9-5.1-4.1c0-2.2,0.4-26.3,0.1-33.6c-0.3-7.3-4.3-10.9-6.1-14
			C151.5,143.7,163.9,119.7,163.9,95.7z"/>
	</g>
</g>
<g id="sidebar">
</g>
<g id="SKILLS">
</g>
<g id="EDUCATION">
</g>
<g id="EXPERIENCE">
</g>
<g id="SUMMARY">
</g>
<g id="CONTACT">
</g>
</svg>
