<?xml version="1.0" encoding="utf-8"?>
<!-- Generator: Adobe Illustrator 23.1.0, SVG Export Plug-In . SVG Version: 6.00 Build 0)  -->
<svg version="1.1" xmlns="http://www.w3.org/2000/svg" xmlns:xlink="http://www.w3.org/1999/xlink" x="0px" y="0px"
	 viewBox="0 0 200 200" style="enable-background:new 0 0 200 200;" xml:space="preserve">
<style type="text/css">
	.st0{fill:#2D2D2D;}
	.st1{fill:#00D6CB;}
	.st2{display:none;}
	.st3{display:inline;fill:#00D6CB;}
	.st4{display:inline;fill:#2D2D2D;}
	.st5{display:inline;fill:#DBFF55;}
	.st6{display:inline;fill:#00DFE9;}
	.st7{fill:#FFFFFF;stroke:#000000;stroke-width:3;stroke-miterlimit:10;}
	.st8{fill:none;stroke:#000000;stroke-width:3;stroke-miterlimit:10;}
	.st9{display:none;fill:#2D2D2D;}
	.st10{font-family:'MyriadWebPro-Bold';}
	.st11{font-size:150.4923px;}
	.st12{fill:#FFFFFF;stroke:#2D2D2D;stroke-width:3;stroke-miterlimit:10;}
	.st13{fill:#C58DE2;}
</style>
<g id="COVER_LETTER">
	<rect id="sidebar_1_" x="-1414.2" y="1056" class="st0" width="139" height="792"/>
	<g id="top">
	</g>
	<rect x="-1252.1" y="1294.9" style="fill:none;" width="413.1" height="515.1"/>
	<text id="opening" transform="matrix(1 0 0 1 -1252.0697 1304.0316)"><tspan x="0" y="0" style="font-family:'OpenSans-Regular'; font-size:12px;">Dear Hiring Manager,</tspan><tspan x="0" y="30" style="font-family:'OpenSans-Regular'; font-size:12px;">Hi there, I’m Ashley. I’m currently in my third and last year at George </tspan><tspan x="0" y="45" style="font-family:'OpenSans-Regular'; font-size:12px;">Brown College in Toronto, Ontario studying Interaction Design and </tspan><tspan x="0" y="60" style="font-family:'OpenSans-Regular'; font-size:12px;">Development. I saw your posting for a Winter 2021 front-end software </tspan><tspan x="0" y="75" style="font-family:'OpenSans-Regular'; font-size:12px;">development intern on LinkedIn, and I felt that I fit the bill perfectly. My </tspan><tspan x="0" y="90" style="font-family:'OpenSans-Regular'; font-size:12px;">interests lie in developing interfaces and I intend to build a career in </tspan><tspan x="0" y="105" style="font-family:'OpenSans-Regular'; font-size:12px;">front-end development. I am familiar with HTML, CSS, and JavaScript, </tspan><tspan x="0" y="120" style="font-family:'OpenSans-Regular'; font-size:12px;">which I have used for the past two years to create web pages that both </tspan><tspan x="0" y="135" style="font-family:'OpenSans-Regular'; font-size:12px;">look good and are user-friendly. Most importantly, I am passionate about </tspan><tspan x="0" y="150" style="font-family:'OpenSans-Regular'; font-size:12px;">expanding my understanding of technologies and coding frameworks. </tspan><tspan x="0" y="165" style="font-family:'OpenSans-Regular'; font-size:12px;"> </tspan><tspan x="0" y="180" style="font-family:'OpenSans-Regular'; font-size:12px;">My approach to coding, design, and everything in between is that there is </tspan><tspan x="0" y="195" style="font-family:'OpenSans-Regular'; font-size:12px;">no problem that cannot be solved with a little bit of time and effort. For a </tspan><tspan x="0" y="210" style="font-family:'OpenSans-Regular'; font-size:12px;">major term project, I was tasked with simulating the inherent lack of </tspan><tspan x="0" y="225" style="font-family:'OpenSans-Regular'; font-size:12px;">privacy in a city, and a professor suggested an open-source object </tspan><tspan x="0" y="240" style="font-family:'OpenSans-Regular'; font-size:12px;">detection system called YOLO that could generate the feeling of being </tspan><tspan x="0" y="255" style="font-family:'OpenSans-Regular'; font-size:12px;">watched. Given that I had never heard of it, had zero experience with </tspan><tspan x="0" y="270" style="font-family:'OpenSans-Regular'; font-size:12px;">Python, and had limited time, getting it to work seemed almost </tspan><tspan x="0" y="285" style="font-family:'OpenSans-Regular'; font-size:12px;">impossible. And yet, with a lot of determination and a massive, massive </tspan><tspan x="0" y="300" style="font-family:'OpenSans-Regular'; font-size:12px;">amount of troubleshooting, I was able to apply the system to two videos </tspan><tspan x="0" y="315" style="font-family:'OpenSans-Regular'; font-size:12px;">and achieve what I had intended.</tspan><tspan x="0" y="345" style="font-family:'OpenSans-Regular'; font-size:12px;">As a student, I see no better way to learn about front-end development </tspan><tspan x="0" y="360" style="font-family:'OpenSans-Regular'; font-size:12px;">than from an industry leader. I am confident that I can contribute to your </tspan><tspan x="0" y="375" style="font-family:'OpenSans-Regular'; font-size:12px;">company’s ethos of eagerly tackling the challenges of making your clients’ </tspan><tspan x="0" y="390" style="font-family:'OpenSans-Regular'; font-size:12px;">user experience an easy one through code. </tspan><tspan x="0" y="420" style="font-family:'OpenSans-Regular'; font-size:12px;">Please feel free to contact me at the phone number or email listed above, </tspan><tspan x="0" y="435" style="font-family:'OpenSans-Regular'; font-size:12px;">and I hope to hear from you soon. </tspan><tspan x="0" y="465" style="font-family:'OpenSans-Regular'; font-size:12px;">Thank you,</tspan><tspan x="0" y="495" style="font-family:'OpenSans-Regular'; font-size:12px;">Ashley Lall</tspan></text>
	<rect x="-1252.1" y="1211.5" style="fill:none;" width="413.1" height="10"/>
	<text id="opening_1_" transform="matrix(1 0 0 1 -1252.0697 1220.6632)" style="font-family:'OpenSans-Regular'; font-size:12px;">December 02, 2020</text>
	<g>
		<g>
			<g>
				<rect x="-1234" y="1178.4" style="fill:none;" width="173.4" height="9.3"/>
				<text transform="matrix(1 0 0 1 -1234.0435 1187.5634)" class="st0" style="font-family:'OpenSans-Regular'; font-size:12px;">www.linkedin.com/in/ashleylall</text>
			</g>
			<g>
				<circle class="st0" cx="-1245.8" cy="1183.1" r="6.2"/>
				<text transform="matrix(1 0 0 1 -1249.813 1185.756)" class="st1 st10" style="font-size:9.0229px;">in</text>
			</g>
		</g>
		<g>
			<g id="github_2_">
				<g>
					<rect x="-1234" y="1163.3" style="fill:none;" width="163.3" height="9.3"/>
					<text transform="matrix(1 0 0 1 -1234.0435 1172.459)" class="st0" style="font-family:'OpenSans-Regular'; font-size:12px;">ashleylall.github.io/portfolio/</text>
				</g>
			</g>
			<g>
				<path class="st0" d="M-1239.6,1168.1c0,2.8-1.8,5.2-4.4,6h-3.7c-2.5-0.8-4.4-3.2-4.4-6c0-3.4,2.8-6.2,6.2-6.2
					C-1242.4,1161.9-1239.6,1164.7-1239.6,1168.1z"/>
				<path class="st1" d="M-1244.7,1170.9c0.1,0.2,0.4,0.4,0.4,0.9c0,0.5,0,2,0,2.1c0,0.1,0.1,0.2,0.3,0.3h-3.7
					c0.1,0,0.2-0.1,0.3-0.2c0.1-0.1,0-1.2,0-1.3c-0.5,0.2-1.4,0-1.6-0.1c-0.7-0.3-0.6-1.3-1.5-1.8c-0.2-0.1,0.5-0.2,0.8,0.1
					c0.2,0.2,0.7,0.9,0.9,1c0.4,0.2,0.8,0.1,1,0.1c0.4,0,0.3-0.8,0.8-1c-1.4,0-2.9-0.9-2.9-2.7c0-1.4,0.4-1.7,0.7-1.9
					c-0.2-0.4-0.2-1.2,0-1.7c0.4-0.1,1.2,0.3,1.7,0.6c0.9-0.2,2.4-0.3,3.2,0c0.2-0.2,1.1-0.7,1.7-0.7c0.2,0.6,0.1,1.6,0,1.7
					c0.1,0.1,0.6,0.6,0.6,1.7C-1241.9,1169.4-1242.6,1170.9-1244.7,1170.9z"/>
				<path class="st1" d="M-1244,1174.1c-0.6,0.2-1.2,0.3-1.8,0.3c-0.6,0-1.3-0.1-1.8-0.3H-1244z"/>
			</g>
		</g>
		<g>
			<rect x="-1234" y="1148.5" style="fill:none;" width="140.8" height="9.3"/>
			<text transform="matrix(1 0 0 1 -1234.0435 1157.6301)" class="st0" style="font-family:'OpenSans-Regular'; font-size:12px;">ashley.lall@outlook.com</text>
			<g>
				<circle class="st0" cx="-1245.8" cy="1153.2" r="6.2"/>
				<g class="st2">
					<path class="st3" d="M-1240.6,1151.3v3.8c0,0.4-0.3,0.7-0.7,0.7h-6.5c-0.4,0-0.7-0.3-0.7-0.7v-3.8c0-0.2,0.1-0.4,0.3-0.6
						c0.1-0.1,0.3-0.2,0.5-0.2h6.5c0.2,0,0.3,0.1,0.5,0.2C-1240.7,1150.8-1240.6,1151-1240.6,1151.3z"/>
					<path class="st4" d="M-1240.9,1150.7l-3.3,2.6c-0.2,0.2-0.6,0.2-0.8,0l-3.3-2.6c0.1-0.1,0.2-0.1,0.4-0.1h6.7
						C-1241,1150.6-1241,1150.6-1240.9,1150.7z"/>
					<path class="st3" d="M-1240.9,1150.7l-3.3,2.1c-0.2,0.2-0.5,0.2-0.8,0l-3.3-2.1c0.1-0.1,0.3-0.2,0.5-0.2h6.5
						C-1241.2,1150.5-1241,1150.6-1240.9,1150.7z"/>
				</g>
				<g>
					<path class="st1" d="M-1242.9,1150.2h-5.9c-0.4,0-0.7,0.3-0.7,0.7l0,4.5c0,0.4,0.3,0.7,0.7,0.7h5.9c0.4,0,0.7-0.3,0.7-0.7v-4.5
						C-1242.1,1150.5-1242.5,1150.2-1242.9,1150.2z M-1242.9,1151.7l-3,1.9l-3-1.9v-0.7l3,1.9l3-1.9V1151.7z"/>
				</g>
			</g>
		</g>
		<g>
			<g>
				<rect x="-1234" y="1133.2" style="fill:none;" width="140.8" height="9.9"/>
				<text transform="matrix(1 0 0 1 -1234.0435 1142.3312)" class="st0" style="font-family:'OpenSans-Regular'; font-size:12px;">(647) 207-2058</text>
			</g>
			<g>
				<circle class="st0" cx="-1245.8" cy="1138.2" r="6.2"/>
				<g>
					<path class="st1" d="M-1248.2,1137.6c0.6,1.2,1.7,2.3,2.9,2.9l1-1c0.1-0.1,0.3-0.2,0.4-0.1c0.5,0.2,1,0.3,1.6,0.3
						c0.2,0,0.4,0.2,0.4,0.4v1.5c0,0.2-0.2,0.4-0.4,0.4c-4.1,0-7.5-3.4-7.5-7.5c0-0.2,0.2-0.4,0.4-0.4h1.5c0.2,0,0.4,0.2,0.4,0.4
						c0,0.6,0.1,1.1,0.3,1.6c0,0.2,0,0.3-0.1,0.4L-1248.2,1137.6z"/>
				</g>
			</g>
		</g>
		
			<text transform="matrix(1 0 0 1 -1251.6466 1120.9884)" class="st0" style="font-family:'Montserrat-ExtraBold'; font-size:30px;">ASHLEY LALL</text>
	</g>
	<rect x="-1252.1" y="1231.5" style="fill:none;" width="413.1" height="41.9"/>
	<text id="opening_2_" transform="matrix(1 0 0 1 -1252.0697 1240.609)"><tspan x="0" y="0" style="font-family:'OpenSans-Regular'; font-size:12px;">Coveo</tspan><tspan x="0" y="15" style="font-family:'OpenSans-Regular'; font-size:12px;">1100 Avenue des Canadiens-de-Montréal, Suite 401</tspan><tspan x="0" y="30" style="font-family:'OpenSans-Regular'; font-size:12px;">Montreal, QC H3B 2S2, Canada</tspan></text>
</g>
<g id="guides" class="st2">
	<rect x="-1025.7" y="806.4" class="st5" width="96.6" height="22.2"/>
	<rect x="-740.8" y="-1097.2" class="st5" width="96.6" height="22.2"/>
	<rect x="-732.3" y="605.1" class="st6" width="96.6" height="11.1"/>
	<rect x="-760.9" y="-1037.6" class="st6" width="96.6" height="11.1"/>
	<rect x="-676.6" y="-1317.3" class="st4" width="91.3" height="163.5"/>
</g>
<g id="email">
	<g>
		<path class="st7" d="M-129.9,488.2h-157.5c-0.6,0-1-0.4-1-1V386.7c0-0.6,0.4-1,1-1h157.5c0.6,0,1,0.4,1,1v100.5
			C-128.9,487.8-129.4,488.2-129.9,488.2z"/>
		<path class="st8" d="M-129.4,387.6l-78.7,50.6c-0.3,0.2-0.8,0.2-1.1,0l-78.7-50.6c-0.9-0.6-0.5-1.9,0.6-1.9H-130
			C-128.9,385.7-128.5,387.1-129.4,387.6z"/>
		<path class="st7" d="M-129.4,383.9l-78.7-49.1c-0.3-0.2-0.8-0.2-1.1,0l-78.7,49.1c-0.9,0.5-0.5,1.8,0.6,1.8H-130
			C-128.9,385.7-128.5,384.4-129.4,383.9z"/>
	</g>
	<path class="st8" d="M-288.4,384.6c0,1.5,0,3.4,0,3.4"/>
	<path class="st8" d="M-128.9,384.6c0,1.5,0,3.4,0,3.4"/>
</g>
<g id="GITHUB">
	<g id="Layer_2" class="st2">
		
			<image style="display:inline;overflow:visible;" width="249" height="227" xlink:href="353D4D2E.jpg"  transform="matrix(0.1549 0 0 0.1549 -275.1357 26.5421)">
		</image>
	</g>
	<g>
		<path class="st9" d="M-106.2,99.8c0,45-29.7,83-70.5,95.6h-59.1c-40.8-12.6-70.5-50.6-70.5-95.6c0-55.2,44.8-100,100-100
			C-151-0.2-106.2,44.6-106.2,99.8z"/>
		<path class="st7" d="M-142.4,95.7c0-17.2-8.6-25.5-10.2-27.3c1.6-1.8,3-17.9-0.8-27.7c-9.5-0.5-23.9,7.8-26.8,11.3
			c-13.7-4.8-37.8-4-52.1-0.7c-6.6-5.7-19.5-11.7-26.6-9.8c-4.4,7.4-3.4,20.3-0.7,27.5c-3.9,3.7-10.5,8.5-10.5,30.9
			c0,29.7,24.3,44.2,46.4,44.2c-7.7,3.1-5.2,15.6-12.3,16.2c-2.6,0.2-10.2,1.1-16-1.6c-4.3-2.4-11.4-13.5-14.9-16.5
			c-5-4.2-16.8-3-13.2-1c14.1,8.1,13.2,23.4,24,29c3.2,1.7,16.3,3.6,25,1.2c0,1.1,0.9,18.5,0,20.7c-0.9,2.2-2.2,2.8-4.6,3.3
			c9.3,2.9,19.2,4.4,29.5,4.4c10.3,0,20.2-1.6,29.5-4.4c-3.5-0.9-5.1-1.9-5.1-4.1c0-2.2,0.4-26.3,0.1-33.6c-0.3-7.3-4.3-10.9-6.1-14
			C-154.8,143.7-142.4,119.7-142.4,95.7z"/>
	</g>
	<text transform="matrix(1 0 0 1 33.7837 144.3952)" class="st9 st10 st11">in</text>
	<g>
		<path class="st12" d="M67.9,49c0,3.5-1.2,6.4-3.6,8.7c-2.4,2.3-5.6,3.5-9.5,3.5c-3.9,0-7.1-1.2-9.5-3.5c-2.4-2.3-3.6-5.2-3.6-8.7
			c0-3.5,1.2-6.4,3.6-8.7c2.4-2.3,5.6-3.5,9.4-3.5c3.9,0,7,1.2,9.4,3.5C66.7,42.6,67.9,45.5,67.9,49z M66.6,144.4H43.3V70.8h23.3
			V144.4z"/>
		<path class="st12" d="M85.4,144.4v-50c0-7.3-0.2-15.1-0.6-23.6H105l1.1,10.4h0.6c5.5-8,13.2-12,23.3-12c8.3,0,14.9,2.8,19.8,8.4
			c4.9,5.6,7.3,13.5,7.3,23.7v43.2h-23.3v-40.2c0-10.9-4.1-16.4-12.2-16.4c-3.3,0-6.3,1.3-8.9,3.8c-2.6,2.5-3.9,6.1-3.9,10.7v42.1
			H85.4z"/>
	</g>
</g>
<g id="sidebar">
	<rect x="-1414.2" y="-7" class="st0" width="139" height="792"/>
</g>
<g id="SKILLS">
	<rect x="-1391.7" y="657.4" style="fill:none;" width="91.9" height="12"/>
	
		<text transform="matrix(1 0 0 1 -1343.0952 666.2925)" style="fill:#FFFFFF; font-family:'Montserrat-ExtraBold'; font-size:12px;">SKILLS</text>
	<g>
		<rect x="-1252.1" y="657.4" style="fill:none;" width="414" height="58.5"/>
		<text transform="matrix(1 0 0 1 -1252.0698 666.5094)"><tspan x="0" y="0" style="fill:#2D2C2D; font-family:'OpenSans-Regular'; font-size:12px;">•</tspan><tspan x="4.5" y="0" style="fill:#2D2C2D; font-family:'OpenSans-Regular'; font-size:12px; letter-spacing:2;">	</tspan><tspan x="10" y="0" style="font-family:'OpenSans-Regular'; font-size:12px;">HTML, CSS, JavaScript, Processing 3</tspan><tspan x="0" y="14.4" style="fill:#2D2C2D; font-family:'OpenSans-Regular'; font-size:12px;">•</tspan><tspan x="4.5" y="14.4" style="fill:#2D2C2D; font-family:'OpenSans-Regular'; font-size:12px; letter-spacing:2;">	</tspan><tspan x="10" y="14.4" style="font-family:'OpenSans-Regular'; font-size:12px;">Adobe Illustrator, Photoshop, After Effects</tspan><tspan x="0" y="28.8" style="fill:#2D2C2D; font-family:'OpenSans-Regular'; font-size:12px;">•</tspan><tspan x="4.5" y="28.8" style="fill:#2D2C2D; font-family:'OpenSans-Regular'; font-size:12px; letter-spacing:2;">	</tspan><tspan x="10" y="28.8" style="font-family:'OpenSans-Regular'; font-size:12px;">Figma, Adobe XD</tspan><tspan x="0" y="43.2" style="fill:#2D2C2D; font-family:'OpenSans-Regular'; font-size:12px;">•</tspan><tspan x="4.5" y="43.2" style="fill:#2D2C2D; font-family:'OpenSans-Regular'; font-size:12px; letter-spacing:2;">	</tspan><tspan x="10" y="43.2" style="font-family:'OpenSans-Regular'; font-size:12px;">Written and verbal communication, problem-solving, organization</tspan></text>
	</g>
</g>
<g id="EDUCATION">
	<text transform="matrix(1 0 0 1 -1119.6113 -19.4255)" style="font-family:'MyriadPro-Regular'; font-size:12px;">https://www.linkedin.com/jobs/view/2261422650/</text>
	<rect x="-1390.6" y="556.5" style="fill:none;" width="91.9" height="12"/>
	<text transform="matrix(1 0 0 1 -1375.955 565.3571)" style="fill:#FFFFFF; font-family:'Montserrat-ExtraBold'; font-size:12px;">EDUCATION</text>
	<g>
		<g>
			<rect x="-1252.1" y="574.8" style="fill:none;" width="414" height="9.8"/>
			<text transform="matrix(1 0 0 1 -1252.0697 583.9018)"><tspan x="0" y="0" style="fill:#2D2C2D; font-family:'OpenSans-Regular'; font-size:12px;">•</tspan><tspan x="4.5" y="0" style="fill:#2D2C2D; font-family:'OpenSans-Regular'; font-size:12px; letter-spacing:2;">	</tspan><tspan x="10" y="0" style="fill:#2D2C2D; font-family:'OpenSans-Regular'; font-size:12px;">Interaction Design and Development, Advanced Diploma</tspan></text>
		</g>
		<g>
			<rect x="-1252.1" y="557.3" style="fill:none;" width="414" height="10.1"/>
			<text transform="matrix(1 0 0 1 -1252.0697 566.4585)" style="font-family:'OpenSans-Bold'; font-size:12px;">George Brown College, 2021</text>
		</g>
	</g>
	<g>
		<g>
			<rect x="-1252.1" y="625.3" style="fill:none;" width="414" height="10.2"/>
			<text transform="matrix(1 0 0 1 -1252.0698 634.4652)"><tspan x="0" y="0" style="fill:#2D2C2D; font-family:'OpenSans-Regular'; font-size:12px;">•</tspan><tspan x="4.5" y="0" style="fill:#2D2C2D; font-family:'OpenSans-Regular'; font-size:12px; letter-spacing:2;">	</tspan><tspan x="10" y="0" style="font-family:'OpenSans-Regular'; font-size:12px;">Political Science and International Relations, Bachelor of Arts</tspan></text>
		</g>
		<g>
			<rect x="-1252.1" y="606.4" style="fill:none;" width="414" height="10.1"/>
			<text transform="matrix(1 0 0 1 -1252.0698 615.4894)" style="font-family:'OpenSans-Bold'; font-size:12px;">University of Toronto, 2018</text>
		</g>
	</g>
</g>
<g id="EXPERIENCE">
	<rect x="-1391.7" y="238.8" style="fill:none;" width="91.9" height="12"/>
	
		<text transform="matrix(1 0 0 1 -1381.2554 247.7012)" style="fill:#FFFFFF; font-family:'Montserrat-ExtraBold'; font-size:12px;">EXPERIENCE</text>
	<g>
		<g>
			<rect x="-1252.1" y="270.8" style="fill:none;" width="414" height="112.3"/>
			<text transform="matrix(1 0 0 1 -1252.0698 279.9162)"><tspan x="0" y="0" class="st0" style="font-family:'OpenSans-Regular'; font-size:12px;">•</tspan><tspan x="4.5" y="0" class="st0" style="font-family:'OpenSans-Regular'; font-size:12px; letter-spacing:2;">	</tspan><tspan x="10" y="0" class="st0" style="font-family:'OpenSans-Regular'; font-size:12px;">Managed team of five in term project on the nature of data collection in </tspan><tspan x="10" y="14.4" class="st0" style="font-family:'OpenSans-Regular'; font-size:12px;">smart cities</tspan><tspan x="0" y="28.8" class="st0" style="font-family:'OpenSans-Regular'; font-size:12px;">•</tspan><tspan x="4.5" y="28.8" class="st0" style="font-family:'OpenSans-Regular'; font-size:12px; letter-spacing:2;">	</tspan><tspan x="10" y="28.8" class="st0" style="font-family:'OpenSans-Regular'; font-size:12px;">Communicated design concepts in presentations to classmates and </tspan><tspan x="10" y="43.2" class="st0" style="font-family:'OpenSans-Regular'; font-size:12px;">faculty</tspan><tspan x="0" y="57.6" class="st0" style="font-family:'OpenSans-Regular'; font-size:12px;">•</tspan><tspan x="4.5" y="57.6" class="st0" style="font-family:'OpenSans-Regular'; font-size:12px; letter-spacing:2;">	</tspan><tspan x="10" y="57.6" class="st0" style="font-family:'OpenSans-Regular'; font-size:12px;">Learned about Python and machine learning platforms through setting </tspan><tspan x="10" y="72" class="st0" style="font-family:'OpenSans-Regular'; font-size:12px;">up and using Darknet’s YOLOv2 object detection system</tspan><tspan x="0" y="86.4" class="st0" style="font-family:'OpenSans-Regular'; font-size:12px;">•</tspan><tspan x="4.5" y="86.4" class="st0" style="font-family:'OpenSans-Regular'; font-size:12px; letter-spacing:2;">	</tspan><tspan x="10" y="86.4" class="st0" style="font-family:'OpenSans-Regular'; font-size:12px;">Created CoSpaces submission for virtual year-end exhibition with </tspan><tspan x="10" y="100.8" class="st0" style="font-family:'OpenSans-Regular'; font-size:12px;">built-in code blocks and Typescript</tspan></text>
		</g>
		<g>
			<rect x="-1252.1" y="238.8" style="fill:none;" width="414" height="25.3"/>
			<text transform="matrix(1 0 0 1 -1252.0698 247.9176)"><tspan x="0" y="0" style="font-family:'OpenSans-Bold'; font-size:12px;">Project Disclosure, Team Leader, Jan-Apr 2020</tspan><tspan x="0" y="14.4" style="font-family:'OpenSans-Regular'; font-size:12px;">George Brown College, Spatial Relations and Immersive Environments</tspan></text>
		</g>
	</g>
	<g>
		<rect x="-1252.1" y="846.2" style="fill:none;" width="426.8" height="14.7"/>
		<text transform="matrix(1 0 0 1 -1252.0682 854.7371)"><tspan x="0" y="0" style="fill:#2D2C2D; font-family:'OpenSans'; font-size:12px;">•</tspan><tspan x="3.4" y="0" style="fill:#2D2C2D; font-family:'OpenSans'; font-size:12px; letter-spacing:4;">	</tspan><tspan x="10" y="0" style="fill:#2D2C2D; font-family:'OpenSans'; font-size:12px;">Advanced diploma in Interaction Design and Development</tspan></text>
	</g>
	<g>
		<rect x="-1252.1" y="817.5" style="fill:none;" width="426.8" height="26.4"/>
		<text transform="matrix(1 0 0 1 -1252.0682 826.6506)"><tspan x="0" y="0" style="font-family:'OpenSans-Bold'; font-size:12px;">Sales Associate, 2015-present</tspan><tspan x="0" y="14.4" style="font-family:'OpenSans'; font-size:12px;">The Shoe Company</tspan></text>
	</g>
	<g>
		<g>
			<rect x="-1252.1" y="438" style="fill:none;" width="414" height="97.2"/>
			<text transform="matrix(1 0 0 1 -1252.0682 447.0817)"><tspan x="0" y="0" style="fill:#2D2C2D; font-family:'OpenSans-Regular'; font-size:12px;">•</tspan><tspan x="4.5" y="0" style="fill:#2D2C2D; font-family:'OpenSans-Regular'; font-size:12px; letter-spacing:2;">	</tspan><tspan x="10" y="0" style="fill:#2D2C2D; font-family:'OpenSans-Regular'; font-size:12px;">Designed and coded an article post for a fictitious superhero website in </tspan><tspan x="10" y="14.4" style="fill:#2D2C2D; font-family:'OpenSans-Regular'; font-size:12px;">a team of two</tspan><tspan x="0" y="28.8" style="fill:#2D2C2D; font-family:'OpenSans-Regular'; font-size:12px;">•</tspan><tspan x="4.5" y="28.8" style="fill:#2D2C2D; font-family:'OpenSans-Regular'; font-size:12px; letter-spacing:2;">	</tspan><tspan x="10" y="28.8" style="fill:#2D2C2D; font-family:'OpenSans-Regular'; font-size:12px;">Created elements, like clickable image thumbnails and a scrollspy, for  </tspan><tspan x="10" y="43.2" style="fill:#2D2C2D; font-family:'OpenSans-Regular'; font-size:12px;">added page interactivity</tspan><tspan x="0" y="57.6" style="fill:#2D2C2D; font-family:'OpenSans-Regular'; font-size:12px;">•</tspan><tspan x="4.5" y="57.6" style="fill:#2D2C2D; font-family:'OpenSans-Regular'; font-size:12px; letter-spacing:2;">	</tspan><tspan x="10" y="57.6" style="fill:#2D2C2D; font-family:'OpenSans-Regular'; font-size:12px;">Implemented features to enhance usability of website, like a fixed footer </tspan><tspan x="10" y="72" style="fill:#2D2C2D; font-family:'OpenSans-Regular'; font-size:12px;">in the presence of infinite scrolling</tspan><tspan x="0" y="86.4" style="fill:#2D2C2D; font-family:'OpenSans-Regular'; font-size:12px;">•</tspan><tspan x="4.5" y="86.4" style="fill:#2D2C2D; font-family:'OpenSans-Regular'; font-size:12px; letter-spacing:2;">	</tspan><tspan x="10" y="86.4" style="fill:#2D2C2D; font-family:'OpenSans-Regular'; font-size:12px;">Assisted partner in troubleshooting code when needed</tspan></text>
		</g>
		<g>
			<rect x="-1252.1" y="405.4" style="fill:none;" width="426.8" height="26.4"/>
			<text transform="matrix(1 0 0 1 -1252.0682 414.4971)"><tspan x="0" y="0" style="font-family:'OpenSans-Bold'; font-size:12px;">SUPERDAZE, Mar-Apr 2020</tspan><tspan x="0" y="14.4" style="font-family:'OpenSans-Regular'; font-size:12px;">George Brown College, Interface Development II</tspan></text>
		</g>
	</g>
</g>
<g id="SUMMARY">
	<rect x="-1368.4" y="148.4" style="fill:none;" width="68.6" height="12"/>
	
		<text transform="matrix(1 0 0 1 -1366.5552 157.2998)" style="fill:#FFFFFF; font-family:'Montserrat-ExtraBold'; font-size:12px;">SUMMARY</text>
	<g id="text">
		<rect x="-1252.1" y="148.4" style="fill:none;" width="414" height="68.2"/>
		<text transform="matrix(1 0 0 1 -1252.0698 157.5163)"><tspan x="0" y="0" class="st0" style="font-family:'OpenSans-Regular'; font-size:12px;">•</tspan><tspan x="4.5" y="0" class="st0" style="font-family:'OpenSans-Regular'; font-size:12px; letter-spacing:2;">	</tspan><tspan x="10" y="0" class="st0" style="font-family:'OpenSans-Regular'; font-size:12px;">Two years of institutional experience using HTML, CSS, and JavaScript to </tspan><tspan x="10" y="14.4" class="st0" style="font-family:'OpenSans-Regular'; font-size:12px;">develop simple and usable interfaces</tspan><tspan x="0" y="28.8" class="st0" style="font-family:'OpenSans-Regular'; font-size:12px;">•</tspan><tspan x="4.5" y="28.8" class="st0" style="font-family:'OpenSans-Regular'; font-size:12px; letter-spacing:2;">	</tspan><tspan x="10" y="28.8" class="st0" style="font-family:'OpenSans-Regular'; font-size:12px;">Ability to work within a team and take on leadership roles</tspan><tspan x="0" y="43.2" class="st0" style="font-family:'OpenSans-Regular'; font-size:12px;">•</tspan><tspan x="4.5" y="43.2" class="st0" style="font-family:'OpenSans-Regular'; font-size:12px; letter-spacing:2;">	</tspan><tspan x="10" y="43.2" class="st0" style="font-family:'OpenSans-Regular'; font-size:12px;">Committed to tackling challenges, figuring things out, and making things </tspan><tspan x="10" y="57.6" class="st0" style="font-family:'OpenSans-Regular'; font-size:12px;">work</tspan></text>
	</g>
</g>
<g id="CONTACT">
	<g>
		<circle class="st13" cx="-1361" cy="-78.4" r="44.2"/>
		<g>
			<rect x="-1391.7" y="-83.8" style="fill:none;" width="61.3" height="10.9"/>
			<text transform="matrix(1 0 0 1 -1391.6877 -74.2157)" class="st0" style="font-family:'Lato-Regular'; font-size:13px;">#BA7FDD</text>
		</g>
	</g>
	<g>
		<circle class="st1" cx="-1250.6" cy="-79" r="44.2"/>
		<rect x="-1280.1" y="-85.6" style="fill:none;" width="59.3" height="13.6"/>
		<text transform="matrix(1 0 0 1 -1280.0708 -76.0272)" class="st0" style="font-family:'Lato-Regular'; font-size:13px;">#00D6CB</text>
	</g>
	<g>
		<g>
			<g>
				<rect x="-1234" y="115.4" style="fill:none;" width="173.4" height="9.3"/>
				<text transform="matrix(1 0 0 1 -1234.0436 124.5316)" class="st0" style="font-family:'OpenSans-Regular'; font-size:12px;">www.linkedin.com/in/ashleylall</text>
			</g>
			<g>
				<circle class="st0" cx="-1245.8" cy="120.1" r="6.2"/>
				<g>
					<g>
						<path class="st1" d="M-1247.7,117.1c0,0.4-0.3,0.7-0.8,0.7c-0.5,0-0.8-0.3-0.8-0.7c0-0.4,0.3-0.7,0.8-0.7
							C-1248,116.4-1247.7,116.7-1247.7,117.1z M-1249.2,122.7v-4.4h1.4v4.4H-1249.2z"/>
						<path class="st1" d="M-1246.6,119.7c0-0.6,0-1.1,0-1.4h1.2l0.1,0.6h0c0.2-0.3,0.6-0.8,1.5-0.8c0.9,0,1.7,0.6,1.7,2v2.5h-1.4
							v-2.3c0-0.6-0.2-1-0.8-1c-0.4,0-0.7,0.3-0.8,0.6c0,0.1,0,0.2,0,0.3v2.5h-1.4V119.7z"/>
					</g>
				</g>
			</g>
		</g>
		<g>
			<g id="github_1_">
				<g>
					<rect x="-1234" y="100.3" style="fill:none;" width="163.3" height="9.3"/>
					<text transform="matrix(1 0 0 1 -1234.0436 109.4272)" class="st0" style="font-family:'OpenSans-Regular'; font-size:12px;">ashleylall.github.io/portfolio/</text>
				</g>
			</g>
			<g>
				<path class="st0" d="M-1239.6,105.1c0,2.8-1.8,5.2-4.4,6h-3.7c-2.5-0.8-4.4-3.2-4.4-6c0-3.4,2.8-6.2,6.2-6.2
					C-1242.4,98.9-1239.6,101.7-1239.6,105.1z"/>
				<path class="st1" d="M-1244.7,107.8c0.1,0.2,0.4,0.4,0.4,0.9c0,0.5,0,2,0,2.1c0,0.1,0.1,0.2,0.3,0.3h-3.7c0.1,0,0.2-0.1,0.3-0.2
					c0.1-0.1,0-1.2,0-1.3c-0.5,0.2-1.4,0-1.6-0.1c-0.7-0.3-0.6-1.3-1.5-1.8c-0.2-0.1,0.5-0.2,0.8,0.1c0.2,0.2,0.7,0.9,0.9,1
					c0.4,0.2,0.8,0.1,1,0.1c0.4,0,0.3-0.8,0.8-1c-1.4,0-2.9-0.9-2.9-2.7c0-1.4,0.4-1.7,0.7-1.9c-0.2-0.4-0.2-1.2,0-1.7
					c0.4-0.1,1.2,0.3,1.7,0.6c0.9-0.2,2.4-0.3,3.2,0c0.2-0.2,1.1-0.7,1.7-0.7c0.2,0.6,0.1,1.6,0,1.7c0.1,0.1,0.6,0.6,0.6,1.7
					C-1241.9,106.3-1242.6,107.8-1244.7,107.8z"/>
				<path class="st1" d="M-1244,111c-0.6,0.2-1.2,0.3-1.8,0.3c-0.6,0-1.3-0.1-1.8-0.3H-1244z"/>
			</g>
		</g>
		<g>
			<rect x="-1234" y="85.5" style="fill:none;" width="140.8" height="9.3"/>
			<text transform="matrix(1 0 0 1 -1234.0436 94.5984)" class="st0" style="font-family:'OpenSans-Regular'; font-size:12px;">ashley.lall@outlook.com</text>
			<g>
				<circle class="st0" cx="-1245.8" cy="90.1" r="6.2"/>
				<g class="st2">
					<path class="st3" d="M-1240.6,88.2V92c0,0.4-0.3,0.7-0.7,0.7h-6.5c-0.4,0-0.7-0.3-0.7-0.7v-3.8c0-0.2,0.1-0.4,0.3-0.6
						c0.1-0.1,0.3-0.2,0.5-0.2h6.5c0.2,0,0.3,0.1,0.5,0.2C-1240.7,87.8-1240.6,88-1240.6,88.2z"/>
					<path class="st4" d="M-1240.9,87.7l-3.3,2.6c-0.2,0.2-0.6,0.2-0.8,0l-3.3-2.6c0.1-0.1,0.2-0.1,0.4-0.1h6.7
						C-1241,87.6-1241,87.6-1240.9,87.7z"/>
					<path class="st3" d="M-1240.9,87.7l-3.3,2.1c-0.2,0.2-0.5,0.2-0.8,0l-3.3-2.1c0.1-0.1,0.3-0.2,0.5-0.2h6.5
						C-1241.2,87.5-1241,87.6-1240.9,87.7z"/>
				</g>
				<g>
					<path class="st1" d="M-1242.9,87.2h-5.9c-0.4,0-0.7,0.3-0.7,0.7l0,4.5c0,0.4,0.3,0.7,0.7,0.7h5.9c0.4,0,0.7-0.3,0.7-0.7v-4.5
						C-1242.1,87.5-1242.5,87.2-1242.9,87.2z M-1242.9,88.6l-3,1.9l-3-1.9v-0.7l3,1.9l3-1.9V88.6z"/>
				</g>
			</g>
		</g>
		<g>
			<g>
				<rect x="-1234" y="70.2" style="fill:none;" width="140.8" height="9.9"/>
				<text transform="matrix(1 0 0 1 -1234.0436 79.2994)" class="st0" style="font-family:'OpenSans-Regular'; font-size:12px;">(647) 207-2058</text>
			</g>
			<g>
				<circle class="st0" cx="-1245.8" cy="75.1" r="6.2"/>
				<g>
					<path class="st1" d="M-1248.2,74.6c0.6,1.2,1.7,2.3,2.9,2.9l1-1c0.1-0.1,0.3-0.2,0.4-0.1c0.5,0.2,1,0.3,1.6,0.3
						c0.2,0,0.4,0.2,0.4,0.4v1.5c0,0.2-0.2,0.4-0.4,0.4c-4.1,0-7.5-3.4-7.5-7.5c0-0.2,0.2-0.4,0.4-0.4h1.5c0.2,0,0.4,0.2,0.4,0.4
						c0,0.6,0.1,1.1,0.3,1.6c0,0.2,0,0.3-0.1,0.4L-1248.2,74.6z"/>
				</g>
			</g>
		</g>
		<text transform="matrix(1 0 0 1 -1251.6467 57.9566)" class="st0" style="font-family:'Montserrat-Bold'; font-size:30px;">ASHLEY LALL</text>
	</g>
</g>
</svg>
